<svg width="32" height="32" viewBox="0 0 32 32" fill="none" xmlns="http://www.w3.org/2000/svg">
<path d="M22.52 24.28L24.28 22.64C24.4667 22.4533 24.56 22.2467 24.56 22.02C24.56 21.7933 24.4667 21.5867 24.28 21.4L18.2 15.32C18.3333 14.9467 18.44 14.5867 18.52 14.24C18.6 13.8933 18.64 13.5333 18.64 13.16C18.64 11.6133 18.0933 10.2933 17 9.2C15.9067 8.10667 14.5867 7.56 13.04 7.56C12.5867 7.56 12.1333 7.62667 11.68 7.76C11.2267 7.89333 10.7867 8.08 10.36 8.32L13.88 11.8L11.72 13.84L8.28 10.44C8.04 10.8667 7.86 11.3067 7.74 11.76C7.62 12.2133 7.56 12.68 7.56 13.16C7.56 14.68 8.09333 15.9667 9.16 17.02C10.2267 18.0733 11.52 18.6 13.04 18.6C13.4133 18.6 13.78 18.5667 14.14 18.5C14.5 18.4333 14.8667 18.3333 15.24 18.2L21.28 24.28C21.44 24.44 21.6467 24.52 21.9 24.52C22.1533 24.52 22.36 24.44 22.52 24.28ZM16 32C13.8133 32 11.7467 31.58 9.8 30.74C7.85333 29.9 6.15333 28.7533 4.7 27.3C3.24667 25.8467 2.1 24.1467 1.26 22.2C0.42 20.2533 0 18.1867 0 16C0 13.7867 0.42 11.7067 1.26 9.76C2.1 7.81333 3.24667 6.12 4.7 4.68C6.15333 3.24 7.85333 2.1 9.8 1.26C11.7467 0.42 13.8133 0 16 0C18.2133 0 20.2933 0.42 22.24 1.26C24.1867 2.1 25.88 3.24 27.32 4.68C28.76 6.12 29.9 7.81333 30.74 9.76C31.58 11.7067 32 13.7867 32 16C32 18.1867 31.58 20.2533 30.74 22.2C29.9 24.1467 28.76 25.8467 27.32 27.3C25.88 28.7533 24.1867 29.9 22.24 30.74C20.2933 31.58 18.2133 32 16 32ZM16 29.6C19.7867 29.6 23 28.2733 25.64 25.62C28.28 22.9667 29.6 19.76 29.6 16C29.6 12.2133 28.28 9 25.64 6.36C23 3.72 19.7867 2.4 16 2.4C12.24 2.4 9.03333 3.72 6.38 6.36C3.72667 9 2.4 12.2133 2.4 16C2.4 19.76 3.72667 22.9667 6.38 25.62C9.03333 28.2733 12.24 29.6 16 29.6Z" fill="url(#paint0_linear_66_521)"/>
<defs>
<linearGradient id="paint0_linear_66_521" x1="16" y1="0" x2="16" y2="32" gradientUnits="userSpaceOnUse">
<stop stop-color="#FB0505"/>
<stop offset="1" stop-color="#CD0101"/>
</linearGradient>
</defs>
</svg>
