<svg width="32" height="32" viewBox="0 0 32 32" fill="none" xmlns="http://www.w3.org/2000/svg">
<path d="M16.0002 28.6667C13.0668 28.6667 10.5557 27.65 8.46683 25.6167C6.37794 23.5834 5.3335 21.1 5.3335 18.1667C5.3335 16.7 5.61127 15.3389 6.16683 14.0834C6.72239 12.8278 7.48905 11.7112 8.46683 10.7334L16.0002 3.33337L23.5335 10.7334C24.5113 11.7112 25.2779 12.8278 25.8335 14.0834C26.3891 15.3389 26.6668 16.7 26.6668 18.1667C26.6668 21.0778 25.6279 23.5556 23.5502 25.6C21.4724 27.6445 18.9557 28.6667 16.0002 28.6667ZM7.36683 17.3H24.6335C24.5224 16.3 24.2668 15.3834 23.8668 14.55C23.4668 13.7167 22.9113 12.9445 22.2002 12.2334L16.0002 6.13337L9.80016 12.2334C9.08905 12.9445 8.5335 13.7167 8.1335 14.55C7.7335 15.3834 7.47794 16.3 7.36683 17.3Z" fill="url(#paint0_linear_67_546)"/>
<defs>
<linearGradient id="paint0_linear_67_546" x1="16.0002" y1="3.33337" x2="16.0002" y2="28.6667" gradientUnits="userSpaceOnUse">
<stop stop-color="#FB0505"/>
<stop offset="1" stop-color="#CD0101"/>
</linearGradient>
</defs>
</svg>
