<svg width="32" height="32" viewBox="0 0 32 32" fill="none" xmlns="http://www.w3.org/2000/svg">
<g clip-path="url(#clip0_66_501)">
<path d="M5.6 26.1333C5.14286 26.1333 4.74286 26.0103 4.4 25.7641C4.05714 25.518 3.88571 25.2308 3.88571 24.9026C3.88571 24.5744 4.05714 24.2872 4.4 24.041C4.74286 23.7949 5.14286 23.6718 5.6 23.6718C6.05714 23.6718 6.45714 23.7949 6.8 24.041C7.14286 24.2872 7.31428 24.5744 7.31428 24.9026C7.31428 25.2308 7.14286 25.518 6.8 25.7641C6.45714 26.0103 6.05714 26.1333 5.6 26.1333ZM16 26.1333C15.5429 26.1333 15.1429 26.0103 14.8 25.7641C14.4571 25.518 14.2857 25.2308 14.2857 24.9026C14.2857 24.5744 14.4571 24.2872 14.8 24.041C15.1429 23.7949 15.5429 23.6718 16 23.6718C16.4571 23.6718 16.8571 23.7949 17.2 24.041C17.5429 24.2872 17.7143 24.5744 17.7143 24.9026C17.7143 25.2308 17.5429 25.518 17.2 25.7641C16.8571 26.0103 16.4571 26.1333 16 26.1333ZM26.4 26.1333C25.9429 26.1333 25.5429 26.0103 25.2 25.7641C24.8571 25.518 24.6857 25.2308 24.6857 24.9026C24.6857 24.5744 24.8571 24.2872 25.2 24.041C25.5429 23.7949 25.9429 23.6718 26.4 23.6718C26.8571 23.6718 27.2571 23.7949 27.6 24.041C27.9429 24.2872 28.1143 24.5744 28.1143 24.9026C28.1143 25.2308 27.9429 25.518 27.6 25.7641C27.2571 26.0103 26.8571 26.1333 26.4 26.1333ZM0 19.9795V17.518C0 14.5915 1.38095 12.0342 4.14286 9.84615C6.90476 7.65812 10.2857 6.41368 14.2857 6.11282V0H17.7143V6.11282C21.7143 6.41368 25.0952 7.65812 27.8571 9.84615C30.619 12.0342 32 14.5915 32 17.518V19.9795H0ZM3.42857 17.518H28.5714C28.5714 15.0291 27.3429 12.9026 24.8857 11.1385C22.4286 9.37436 19.4667 8.49231 16 8.49231C12.5333 8.49231 9.57143 9.37436 7.11429 11.1385C4.65714 12.9026 3.42857 15.0291 3.42857 17.518ZM5.6 32C5.14286 32 4.74286 31.8769 4.4 31.6308C4.05714 31.3846 3.88571 31.0974 3.88571 30.7692C3.88571 30.441 4.05714 30.1538 4.4 29.9077C4.74286 29.6615 5.14286 29.5385 5.6 29.5385C6.05714 29.5385 6.45714 29.6615 6.8 29.9077C7.14286 30.1538 7.31428 30.441 7.31428 30.7692C7.31428 31.0974 7.14286 31.3846 6.8 31.6308C6.45714 31.8769 6.05714 32 5.6 32ZM16 32C15.5429 32 15.1429 31.8769 14.8 31.6308C14.4571 31.3846 14.2857 31.0974 14.2857 30.7692C14.2857 30.441 14.4571 30.1538 14.8 29.9077C15.1429 29.6615 15.5429 29.5385 16 29.5385C16.4571 29.5385 16.8571 29.6615 17.2 29.9077C17.5429 30.1538 17.7143 30.441 17.7143 30.7692C17.7143 31.0974 17.5429 31.3846 17.2 31.6308C16.8571 31.8769 16.4571 32 16 32ZM26.4 32C25.9429 32 25.5429 31.8769 25.2 31.6308C24.8571 31.3846 24.6857 31.0974 24.6857 30.7692C24.6857 30.441 24.8571 30.1538 25.2 29.9077C25.5429 29.6615 25.9429 29.5385 26.4 29.5385C26.8571 29.5385 27.2571 29.6615 27.6 29.9077C27.9429 30.1538 28.1143 30.441 28.1143 30.7692C28.1143 31.0974 27.9429 31.3846 27.6 31.6308C27.2571 31.8769 26.8571 32 26.4 32Z" fill="url(#paint0_linear_66_501)"/>
</g>
<defs>
<linearGradient id="paint0_linear_66_501" x1="16" y1="0" x2="16" y2="32" gradientUnits="userSpaceOnUse">
<stop stop-color="#FB0505"/>
<stop offset="1" stop-color="#CD0101"/>
</linearGradient>
<clipPath id="clip0_66_501">
<rect width="32" height="32" fill="white"/>
</clipPath>
</defs>
</svg>
