<svg width="28" height="28" viewBox="0 0 28 28" fill="none" xmlns="http://www.w3.org/2000/svg">
<path d="M8.6665 20.6666H19.3332V18.6666H8.6665V20.6666ZM12.5665 16.4666L20.0332 8.99996L18.5332 7.49996L12.5665 13.4666L9.43317 10.3333L7.93317 11.8333L12.5665 16.4666ZM13.9998 27.3333C12.1776 27.3333 10.4554 26.9833 8.83317 26.2833C7.21095 25.5833 5.79428 24.6277 4.58317 23.4166C3.37206 22.2055 2.4165 20.7888 1.7165 19.1666C1.0165 17.5444 0.666504 15.8222 0.666504 14C0.666504 12.1555 1.0165 10.4222 1.7165 8.79996C2.4165 7.17774 3.37206 5.76663 4.58317 4.56663C5.79428 3.36663 7.21095 2.41663 8.83317 1.71663C10.4554 1.01663 12.1776 0.666626 13.9998 0.666626C15.8443 0.666626 17.5776 1.01663 19.1998 1.71663C20.8221 2.41663 22.2332 3.36663 23.4332 4.56663C24.6332 5.76663 25.5832 7.17774 26.2832 8.79996C26.9832 10.4222 27.3332 12.1555 27.3332 14C27.3332 15.8222 26.9832 17.5444 26.2832 19.1666C25.5832 20.7888 24.6332 22.2055 23.4332 23.4166C22.2332 24.6277 20.8221 25.5833 19.1998 26.2833C17.5776 26.9833 15.8443 27.3333 13.9998 27.3333ZM13.9998 25.3333C17.1554 25.3333 19.8332 24.2277 22.0332 22.0166C24.2332 19.8055 25.3332 17.1333 25.3332 14C25.3332 10.8444 24.2332 8.16663 22.0332 5.96663C19.8332 3.76663 17.1554 2.66663 13.9998 2.66663C10.8665 2.66663 8.19428 3.76663 5.98317 5.96663C3.77206 8.16663 2.6665 10.8444 2.6665 14C2.6665 17.1333 3.77206 19.8055 5.98317 22.0166C8.19428 24.2277 10.8665 25.3333 13.9998 25.3333Z" fill="url(#paint0_linear_66_540)"/>
<defs>
<linearGradient id="paint0_linear_66_540" x1="13.9998" y1="0.666626" x2="13.9998" y2="27.3333" gradientUnits="userSpaceOnUse">
<stop stop-color="#FB0505"/>
<stop offset="1" stop-color="#CD0101"/>
</linearGradient>
</defs>
</svg>
