<svg width="32" height="32" viewBox="0 0 32 32" fill="none" xmlns="http://www.w3.org/2000/svg">
<g clip-path="url(#clip0_67_548)">
<path d="M20.7421 16.554V15.448C20.7421 13.794 19.8981 12.98 18.7681 12.98C17.6241 12.98 16.7881 13.794 16.7881 15.448V16.554C16.7881 18.214 17.6241 19.028 18.7681 19.028C19.8981 19.028 20.7421 18.212 20.7421 16.554ZM25.9141 16.074C26.8401 16.074 27.3841 15.53 27.3841 14.586C27.3841 13.642 26.8401 13.104 25.9141 13.104H24.3661V16.074H25.9141Z" fill="url(#paint0_linear_67_548)"/>
<path fill-rule="evenodd" clip-rule="evenodd" d="M9.786 0C9.5213 5.6238e-05 9.26741 0.105062 9.08 0.292L0.292 9.08C0.105062 9.26741 5.6238e-05 9.5213 0 9.786L0 22.214C5.6238e-05 22.4787 0.105062 22.7326 0.292 22.92L9.08 31.708C9.26741 31.8949 9.5213 31.9999 9.786 32H22.214C22.4787 31.9999 22.7326 31.8949 22.92 31.708L31.708 22.92C31.8949 22.7326 31.9999 22.4787 32 22.214V9.786C31.9999 9.5213 31.8949 9.26741 31.708 9.08L22.92 0.292C22.7326 0.105062 22.4787 5.6238e-05 22.214 0L9.786 0ZM6.32 20.16C4.458 20.16 3.426 19.174 3.332 17.896H4.638C4.768 18.588 5.43 19.062 6.42 19.062C7.468 19.062 8.08 18.57 8.08 17.822C8.08 17.216 7.674 16.888 6.806 16.678L5.494 16.35C4.274 16.056 3.538 15.33 3.538 14.194C3.538 12.782 4.732 11.826 6.426 11.826C8.132 11.826 9.198 12.776 9.298 14H8.008C7.88 13.36 7.304 12.916 6.414 12.916C5.47 12.916 4.874 13.408 4.874 14.116C4.874 14.638 5.266 14.99 5.98 15.16L7.288 15.482C8.634 15.81 9.408 16.456 9.408 17.702C9.408 19.174 8.26 20.158 6.32 20.158V20.16ZM13.174 13.14V20H11.844V13.14H9.506V12H15.518V13.136H13.174V13.14ZM22.09 15.46V16.548C22.09 18.81 20.818 20.158 18.768 20.158C16.716 20.158 15.44 18.81 15.44 16.548V15.46C15.44 13.188 16.716 11.846 18.768 11.846C20.818 11.846 22.088 13.194 22.088 15.46H22.09ZM23.04 12H26.11C27.75 12 28.742 13.1 28.742 14.584C28.742 16.078 27.74 17.162 26.1 17.162H24.37V20H23.04V12.002V12Z" fill="url(#paint1_linear_67_548)"/>
</g>
<defs>
<linearGradient id="paint0_linear_67_548" x1="22.0861" y1="12.98" x2="22.0861" y2="19.028" gradientUnits="userSpaceOnUse">
<stop stop-color="#FB0505"/>
<stop offset="1" stop-color="#CD0101"/>
</linearGradient>
<linearGradient id="paint1_linear_67_548" x1="16" y1="0" x2="16" y2="32" gradientUnits="userSpaceOnUse">
<stop stop-color="#FB0505"/>
<stop offset="1" stop-color="#CD0101"/>
</linearGradient>
<clipPath id="clip0_67_548">
<rect width="32" height="32" fill="white"/>
</clipPath>
</defs>
</svg>
