<svg width="32" height="32" viewBox="0 0 32 32" fill="none" xmlns="http://www.w3.org/2000/svg">
<path d="M25.8479 31.5131L14.4288 20.0055C13.7501 20.2416 13.0715 20.4334 12.3928 20.5809C11.7142 20.7284 11.0207 20.8022 10.3126 20.8022C7.45044 20.8022 5.01614 19.8064 3.00968 17.8147C1.00323 15.823 0 13.396 0 10.5339C0 9.61918 0.118026 8.7266 0.35408 7.85615C0.590133 6.98571 0.92946 6.1669 1.37206 5.39972L7.78976 11.8174L11.8617 8.01106L5.26694 1.41632C6.03412 0.97372 6.84555 0.627017 7.70124 0.37621C8.55694 0.125404 9.42739 0 10.3126 0C13.2337 0 15.7197 1.02536 17.7704 3.07607C19.8211 5.12679 20.8465 7.61272 20.8465 10.5339C20.8465 11.242 20.7727 11.9355 20.6252 12.6141C20.4776 13.2928 20.2858 13.9714 20.0498 14.6501L31.5131 26.0692C31.8377 26.3937 32 26.7847 32 27.242C32 27.6994 31.8377 28.0904 31.5131 28.4149L28.1494 31.5131C27.8248 31.8377 27.4412 32 26.9986 32C26.556 32 26.1724 31.8377 25.8479 31.5131ZM27.0871 28.9903L28.8575 27.2199L16.7745 15.1369C17.2467 14.5173 17.6007 13.787 17.8368 12.9461C18.0728 12.1051 18.1909 11.3011 18.1909 10.5339C18.1909 8.32088 17.3721 6.44721 15.7344 4.91286C14.0968 3.37852 12.2305 2.59659 10.1355 2.56708L14.6058 7.12586C14.8714 7.39142 15.0041 7.716 15.0041 8.09958C15.0041 8.48317 14.8714 8.80774 14.6058 9.07331L8.76348 14.5615C8.49792 14.8271 8.17335 14.9599 7.78976 14.9599C7.40618 14.9599 7.0816 14.8271 6.81604 14.5615L2.52282 10.3126C2.61134 12.5846 3.4154 14.4583 4.93499 15.9336C6.45459 17.4089 8.24712 18.1466 10.3126 18.1466C11.0503 18.1466 11.8322 18.0286 12.6584 17.7925C13.4846 17.5565 14.2075 17.2024 14.8271 16.7303L27.0871 28.9903Z" fill="url(#paint0_linear_66_513)"/>
<defs>
<linearGradient id="paint0_linear_66_513" x1="16" y1="0" x2="16" y2="32" gradientUnits="userSpaceOnUse">
<stop stop-color="#FB0505"/>
<stop offset="1" stop-color="#CD0101"/>
</linearGradient>
</defs>
</svg>
