<svg width="32" height="32" viewBox="0 0 32 32" fill="none" xmlns="http://www.w3.org/2000/svg">
<path d="M32 16C32 24.8366 24.8366 32 16 32C7.16344 32 0 24.8366 0 16C0 7.16344 7.16344 0 16 0C24.8366 0 32 7.16344 32 16Z" fill="#1D0101"/>
<path d="M6.10082 16.8754C5.93673 16.7113 5.84454 16.4887 5.84454 16.2567C5.84454 16.0246 5.93673 15.8021 6.10082 15.638L7.95698 13.7818C8.12107 13.6177 8.34363 13.5255 8.5757 13.5255C8.80776 13.5255 9.03032 13.6177 9.19441 13.7818C9.35851 13.9459 9.4507 14.1685 9.4507 14.4005C9.4507 14.6326 9.35851 14.8552 9.19441 15.0192L9.81313 15.638L14.9361 10.515L13.9808 8.60437C13.8987 8.4402 13.8703 8.25436 13.8996 8.07315C13.9289 7.89193 14.0145 7.72453 14.1442 7.59463L15.3816 6.35719C15.5457 6.1931 15.7683 6.10091 16.0003 6.10091C16.2324 6.10091 16.4549 6.1931 16.619 6.35719C16.7831 6.52128 16.8753 6.74384 16.8753 6.97591C16.8753 7.20797 16.7831 7.43053 16.619 7.59463L15.8271 8.38659L16.5992 9.92843L19.1941 10.5261C19.6998 9.31071 20.6436 8.32962 21.8385 7.77726C23.0333 7.22489 24.3921 7.14157 25.6456 7.5438C26.899 7.94603 27.9556 8.80446 28.6059 9.94897C29.2563 11.0935 29.4529 12.4405 29.1569 13.7232C28.8609 15.0059 28.0939 16.1306 27.0078 16.8744C25.9216 17.6181 24.5957 17.9268 23.2928 17.7391C21.9899 17.5514 20.805 16.881 19.973 15.8609C19.141 14.8408 18.7226 13.5454 18.8006 12.2313L17.1672 11.8551L18.7091 18.5348C18.7424 18.6794 18.7385 18.8301 18.6976 18.9728C18.6567 19.1154 18.5801 19.2453 18.4752 19.3503L15.9496 21.8759C16.58 22.763 16.9192 23.8241 16.9202 24.9125C16.9212 26.0008 16.5839 27.0625 15.955 27.9508C15.3261 28.839 14.4367 29.5099 13.4099 29.8705C12.3831 30.2312 11.2695 30.2638 10.2233 29.9638C9.17714 29.6639 8.25002 29.0463 7.57025 28.1963C6.89047 27.3464 6.49163 26.3062 6.42892 25.2197C6.3662 24.1332 6.64271 23.054 7.22018 22.1315C7.79765 21.209 8.64754 20.4888 9.65226 20.0705L9.01622 17.3159L7.95698 16.2567L7.33826 16.8754C7.17416 17.0395 6.9516 17.1317 6.71954 17.1317C6.48748 17.1317 6.26492 17.0395 6.10082 16.8754ZM10.98 18.0423L11.3587 19.6782C12.5268 19.6089 13.7148 19.9306 14.7121 20.6384L16.1216 19.229L10.98 18.0423ZM16.6896 17.5647L15.5029 12.4231L11.548 16.378L16.6896 17.5647ZM13.4475 21.9031C12.9351 21.6013 12.3541 21.4351 11.7596 21.4205L12.1667 23.1839L13.4475 21.9031ZM10.0544 21.8115C9.43329 22.1345 8.92328 22.6364 8.59032 23.2522C8.25735 23.8681 8.11674 24.5696 8.18663 25.2662C8.25653 25.9629 8.53373 26.6225 8.98242 27.1599C9.43111 27.6973 10.0307 28.0878 10.7036 28.281C11.3765 28.4741 12.0919 28.461 12.7573 28.2434C13.4227 28.0257 14.0076 27.6135 14.4363 27.06C14.8649 26.5065 15.1178 25.8371 15.1621 25.1384C15.2065 24.4397 15.0402 23.7438 14.6849 23.1405L12.288 25.5375C12.1776 25.6479 12.0396 25.7268 11.8883 25.7659C11.7371 25.805 11.5782 25.8029 11.4281 25.7598C11.2779 25.7168 11.142 25.6343 11.0345 25.521C10.927 25.4077 10.8518 25.2677 10.8167 25.1155L10.0544 21.8115ZM20.5442 12.6335C20.5662 13.4851 20.8981 14.2994 21.4776 14.9238C22.0571 15.5482 22.8444 15.9398 23.692 16.0252C24.5396 16.1107 25.3892 15.8841 26.0817 15.3879C26.7741 14.8917 27.2618 14.16 27.4534 13.3299C27.6449 12.4998 27.5272 11.6284 27.1222 10.879C26.7172 10.1295 26.0528 9.55349 25.2535 9.25887C24.4542 8.96425 23.5748 8.97127 22.7803 9.27859C21.9858 9.58592 21.3307 10.1725 20.9377 10.9283L24.2404 11.6918C24.3524 11.7176 24.4582 11.7653 24.5517 11.832C24.6453 11.8987 24.7248 11.9832 24.7857 12.0806C24.8466 12.1781 24.8877 12.2865 24.9066 12.3999C24.9256 12.5132 24.9221 12.6292 24.8962 12.7411C24.8704 12.8531 24.8228 12.9589 24.7561 13.0524C24.6893 13.146 24.6048 13.2255 24.5074 13.2864C24.41 13.3473 24.3015 13.3884 24.1882 13.4074C24.0748 13.4263 23.9589 13.4228 23.8469 13.397L20.5454 12.6347L20.5442 12.6335Z" fill="url(#paint0_linear_211_523)"/>
<defs>
<linearGradient id="paint0_linear_211_523" x1="16" y1="0" x2="16" y2="32" gradientUnits="userSpaceOnUse">
<stop stop-color="#FB0505"/>
<stop offset="1" stop-color="#CD0101"/>
</linearGradient>
</defs>
</svg>
