<svg width="160" height="160" viewBox="0 0 160 160" fill="none" xmlns="http://www.w3.org/2000/svg">
<path d="M33.4 29.94C36.15 26.56 40.2 25 44.14 25H115.86C119.79 25 123.84 26.56 126.6 29.94C132.38 37.02 145 55.28 145 80C145 104.72 132.38 122.97 126.6 130.06C123.84 133.44 119.8 135 115.86 135H44.14C40.2 135 36.15 133.44 33.4 130.06C27.62 122.97 15 104.72 15 80C15 55.28 27.62 37.03 33.4 29.94ZM44.14 35C43.5792 34.9735 43.0195 35.0728 42.5021 35.2909C41.9847 35.5089 41.5227 35.8401 41.15 36.26C35.99 42.59 25 58.63 25 80C25 101.37 35.99 117.4 41.15 123.74C41.75 124.47 42.78 125 44.15 125H115.85C117.22 125 118.25 124.47 118.85 123.74C124.01 117.41 135 101.37 135 80C135 58.63 124.01 42.6 118.85 36.26C118.476 35.8387 118.013 35.5068 117.493 35.2887C116.974 35.0706 116.412 34.9719 115.85 35H44.15H44.14Z" fill="#9C9C9C"/>
<path d="M60 55C61.3261 55 62.5979 55.5268 63.5355 56.4645C64.4732 57.4021 65 58.6739 65 60V75C65 76.3261 64.4732 77.5979 63.5355 78.5355C62.5979 79.4732 61.3261 80 60 80C58.6739 80 57.4021 79.4732 56.4645 78.5355C55.5268 77.5979 55 76.3261 55 75V60C55 58.6739 55.5268 57.4021 56.4645 56.4645C57.4021 55.5268 58.6739 55 60 55ZM100 55C101.326 55 102.598 55.5268 103.536 56.4645C104.473 57.4021 105 58.6739 105 60V75C105 76.3261 104.473 77.5979 103.536 78.5355C102.598 79.4732 101.326 80 100 80C98.6739 80 97.4021 79.4732 96.4645 78.5355C95.5268 77.5979 95 76.3261 95 75V60C95 58.6739 95.5268 57.4021 96.4645 56.4645C97.4021 55.5268 98.6739 55 100 55ZM70 100V110H90V100C90 97.3478 88.9464 94.8043 87.0711 92.9289C85.1957 91.0536 82.6522 90 80 90C77.3478 90 74.8043 91.0536 72.9289 92.9289C71.0536 94.8043 70 97.3478 70 100Z" fill="#9C9C9C"/>
</svg>
