<svg width="160" height="160" viewBox="0 0 160 160" fill="none" xmlns="http://www.w3.org/2000/svg">
<g clip-path="url(#clip0_26_74)">
<path d="M55 40.02H84.62C100.45 40.02 110 51.04 110 65.86C110 80.8 100.33 91.64 84.5 91.64H67.84V120H55V40.02ZM82.7 80.74C91.63 80.74 96.89 75.29 96.89 65.86C96.89 56.43 91.63 51.04 82.69 51.04H67.78V80.74H82.7Z" fill="#9C9C9C"/>
<path d="M0 20C0 14.6957 2.10714 9.60859 5.85786 5.85786C9.60859 2.10714 14.6957 0 20 0L140 0C145.304 0 150.391 2.10714 154.142 5.85786C157.893 9.60859 160 14.6957 160 20V140C160 145.304 157.893 150.391 154.142 154.142C150.391 157.893 145.304 160 140 160H20C14.6957 160 9.60859 157.893 5.85786 154.142C2.10714 150.391 0 145.304 0 140V20ZM150 20C150 17.3478 148.946 14.8043 147.071 12.9289C145.196 11.0536 142.652 10 140 10H20C17.3478 10 14.8043 11.0536 12.9289 12.9289C11.0536 14.8043 10 17.3478 10 20V140C10 142.652 11.0536 145.196 12.9289 147.071C14.8043 148.946 17.3478 150 20 150H140C142.652 150 145.196 148.946 147.071 147.071C148.946 145.196 150 142.652 150 140V20Z" fill="#9C9C9C"/>
</g>
<defs>
<clipPath id="clip0_26_74">
<rect width="160" height="160" fill="white"/>
</clipPath>
</defs>
</svg>
