<svg width="160" height="160" viewBox="0 0 160 160" fill="none" xmlns="http://www.w3.org/2000/svg">
<g clip-path="url(#clip0_26_68)">
<path d="M104.8 53.23H102V66.76H104.8C108.52 66.76 110.2 64.54 110.2 60.02C110.2 55.52 108.51 53.22 104.8 53.22V53.23Z" fill="#9C9C9C"/>
<path fill-rule="evenodd" clip-rule="evenodd" d="M70.2199 144.34C71.2119 146.062 72.64 147.492 74.3604 148.486C76.0808 149.481 78.0328 150.004 80.0199 150.004C82.007 150.004 83.9591 149.481 85.6795 148.486C87.3999 147.492 88.828 146.062 89.8199 144.34L158.39 27.67C162.96 19.89 157.47 10 148.59 10H11.4399C2.54994 10 -2.93006 19.9 1.63994 27.67L70.2099 144.34H70.2199ZM55.0599 62.32V70H51.0999V62.4L44.3999 50H48.7999L53.0399 58.49H53.1999L57.4799 50H61.7599L55.0599 62.32ZM66.2799 50V70H62.3199V50H66.2799ZM73.1199 66.76H82.0699V70H69.1899V50H82.0699V53.24H73.1199V58.37H81.5399V61.4H73.1199V66.76ZM88.3299 66.63H96.8099V70H84.3699V50H88.3299V66.63ZM98.0299 70V50H105.33C111.41 50 114.28 53.64 114.28 59.95C114.28 66.31 111.37 70 105.33 70H98.0299Z" fill="#9C9C9C"/>
</g>
<defs>
<clipPath id="clip0_26_68">
<rect width="160" height="160" fill="white"/>
</clipPath>
</defs>
</svg>
