<svg width="24" height="25" viewBox="0 0 24 25" fill="none" xmlns="http://www.w3.org/2000/svg">
<path d="M21.6009 0.850952H2.39914C1.08004 0.850952 0.0115203 2.20088 0.0115203 3.8514L0 21.8505C0 23.501 1.08004 24.851 2.39914 24.851H21.6009C22.92 24.851 24 23.501 24 21.8505V3.8514C24 2.20088 22.92 0.850952 21.6009 0.850952ZM21.1199 7.22623L12.6365 13.8571C12.4451 14.0044 12.2248 14.0824 12 14.0824C11.7752 14.0824 11.5549 14.0044 11.3635 13.8571L2.88012 7.22623C2.76146 7.14075 2.6578 7.02626 2.57532 6.88961C2.49285 6.75295 2.43324 6.59693 2.40007 6.43084C2.36689 6.26476 2.36083 6.09203 2.38224 5.92296C2.40365 5.75388 2.4521 5.59193 2.52468 5.44678C2.59727 5.30162 2.69251 5.17622 2.80472 5.07808C2.91693 4.97994 3.04381 4.91106 3.17778 4.87555C3.31176 4.84005 3.45009 4.83864 3.58451 4.87142C3.71893 4.9042 3.84669 4.97049 3.96016 5.06634L12 11.3516L20.0398 5.06634C20.1533 4.97049 20.2811 4.9042 20.4155 4.87142C20.5499 4.83864 20.6882 4.84005 20.8222 4.87555C20.9562 4.91106 21.0831 4.97994 21.1953 5.07808C21.3075 5.17622 21.4027 5.30162 21.4753 5.44678C21.5479 5.59193 21.5963 5.75388 21.6178 5.92296C21.6392 6.09203 21.6331 6.26476 21.5999 6.43084C21.5668 6.59693 21.5072 6.75295 21.4247 6.88961C21.3422 7.02626 21.2385 7.14075 21.1199 7.22623V7.22623Z" fill="url(#paint0_linear_69_817)"/>
<defs>
<linearGradient id="paint0_linear_69_817" x1="12" y1="0.850952" x2="12" y2="24.851" gradientUnits="userSpaceOnUse">
<stop stop-color="#FB0505"/>
<stop offset="1" stop-color="#CD0101"/>
</linearGradient>
</defs>
</svg>
