<svg width="18" height="17" viewBox="0 0 18 17" fill="none" xmlns="http://www.w3.org/2000/svg">
<path d="M16.2006 0.850952H1.79935C0.810032 0.850952 0.00864023 1.70364 0.00864023 2.7462L0 14.1154C0 15.1579 0.810032 16.0106 1.79935 16.0106H16.2006C17.19 16.0106 18 15.1579 18 14.1154V2.7462C18 1.70364 17.19 0.850952 16.2006 0.850952ZM15.8399 4.87792L9.47738 9.06633C9.33384 9.15937 9.16857 9.20863 9 9.20863C8.83143 9.20863 8.66616 9.15937 8.52262 9.06633L2.16009 4.87792C2.07109 4.82392 1.99335 4.75161 1.93149 4.66529C1.86963 4.57897 1.82493 4.48041 1.80005 4.37551C1.77517 4.2706 1.77062 4.1615 1.78668 4.0547C1.80274 3.9479 1.83907 3.84561 1.89351 3.75392C1.94795 3.66223 2.01938 3.58302 2.10354 3.52103C2.1877 3.45904 2.28286 3.41553 2.38334 3.3931C2.48382 3.37068 2.58757 3.36979 2.68838 3.39049C2.7892 3.4112 2.88501 3.45307 2.97012 3.51362L9 7.48374L15.0299 3.51362C15.115 3.45307 15.2108 3.4112 15.3116 3.39049C15.4124 3.36979 15.5162 3.37068 15.6167 3.3931C15.7171 3.41553 15.8123 3.45904 15.8965 3.52103C15.9806 3.58302 16.052 3.66223 16.1065 3.75392C16.1609 3.84561 16.1973 3.9479 16.2133 4.0547C16.2294 4.1615 16.2248 4.2706 16.1999 4.37551C16.1751 4.48041 16.1304 4.57897 16.0685 4.66529C16.0067 4.75161 15.9289 4.82392 15.8399 4.87792Z" fill="url(#paint0_linear_69_817)"/>
<defs>
<linearGradient id="paint0_linear_69_817" x1="9" y1="0.850952" x2="9" y2="16.0106" gradientUnits="userSpaceOnUse">
<stop stop-color="#FB0505"/>
<stop offset="1" stop-color="#CD0101"/>
</linearGradient>
</defs>
</svg>
