<svg width="24" height="25" viewBox="0 0 24 25" fill="none" xmlns="http://www.w3.org/2000/svg">
<path d="M12 0.364441C5.70031 0.364441 0 4.2915 0 10.3658C0 14.2446 3.67542 18.8069 11.01 24.0629C11.2872 24.2574 11.6411 24.3644 12.0072 24.3644C12.3733 24.3644 12.7272 24.2574 13.0043 24.0629C20.3246 18.8069 24 14.2446 24 10.3658C24 4.2915 18.2997 0.364441 12 0.364441V0.364441ZM12 12.5613C10.3495 12.5613 8.99955 11.4636 8.99955 10.1214C8.99955 8.77916 10.3495 7.6814 12 7.6814C13.6505 7.6814 15.0005 8.77916 15.0005 10.1214C15.0005 11.4636 13.6505 12.5613 12 12.5613Z" fill="url(#paint0_linear_69_821)"/>
<defs>
<linearGradient id="paint0_linear_69_821" x1="12" y1="0.364441" x2="12" y2="24.3644" gradientUnits="userSpaceOnUse">
<stop stop-color="#FB0505"/>
<stop offset="1" stop-color="#CD0101"/>
</linearGradient>
</defs>
</svg>
