<svg width="18" height="16" viewBox="0 0 18 16" fill="none" xmlns="http://www.w3.org/2000/svg">
<path d="M9 0.364441C4.27524 0.364441 0 2.84498 0 6.68183C0 9.13186 2.75656 12.0137 8.25754 15.3337C8.46541 15.4565 8.73083 15.5241 9.0054 15.5241C9.27997 15.5241 9.54539 15.4565 9.75326 15.3337C15.2434 12.0137 18 9.13186 18 6.68183C18 2.84498 13.7248 0.364441 9 0.364441ZM9 8.06864C7.76211 8.06864 6.74966 7.37523 6.74966 6.52743C6.74966 5.67963 7.76211 4.98622 9 4.98622C10.2379 4.98622 11.2503 5.67963 11.2503 6.52743C11.2503 7.37523 10.2379 8.06864 9 8.06864Z" fill="url(#paint0_linear_69_821)"/>
<defs>
<linearGradient id="paint0_linear_69_821" x1="9" y1="0.364441" x2="9" y2="15.5241" gradientUnits="userSpaceOnUse">
<stop stop-color="#FB0505"/>
<stop offset="1" stop-color="#CD0101"/>
</linearGradient>
</defs>
</svg>
