<svg width="32" height="32" viewBox="0 0 32 32" fill="none" xmlns="http://www.w3.org/2000/svg">
<path d="M25.6832 20.3799L22.2892 19.9919C21.8904 19.9452 21.4862 19.9894 21.1069 20.1213C20.7276 20.2532 20.3831 20.4693 20.0993 20.7534L17.64 23.2111C13.8479 21.2823 10.7656 18.2 8.83679 14.408L11.3073 11.9358C11.8829 11.3619 12.1634 10.5603 12.0688 9.74424L11.6825 6.37751C11.6065 5.72567 11.2936 5.1245 10.8031 4.68845C10.3127 4.2524 9.67901 4.01192 9.02276 4.01279H6.71255C5.20233 4.01279 3.94703 5.2697 4.04001 6.77831C4.74863 18.1883 13.8724 27.2993 25.2696 28.0079C26.7782 28.1009 28.0351 26.8456 28.0351 25.3354V23.0252C28.0384 22.3718 27.8001 21.7402 27.366 21.2519C26.9318 20.7636 26.3325 20.4531 25.6832 20.3799V20.3799Z" fill="url(#paint0_linear_69_822)"/>
<defs>
<linearGradient id="paint0_linear_69_822" x1="16.0352" y1="4.01279" x2="16.0352" y2="28.0128" gradientUnits="userSpaceOnUse">
<stop stop-color="#FB0505"/>
<stop offset="1" stop-color="#CD0101"/>
</linearGradient>
</defs>
</svg>
