<svg width="18" height="18" viewBox="0 0 18 18" fill="none" xmlns="http://www.w3.org/2000/svg">
<path d="M14.4223 11.4453L12.517 11.2275C12.2931 11.2013 12.0661 11.2261 11.8532 11.3001C11.6403 11.3742 11.4469 11.4955 11.2876 11.655L9.90696 13.0347C7.77818 11.9519 6.04786 10.2216 4.96506 8.0928L6.35196 6.705C6.67506 6.3828 6.83256 5.9328 6.77946 5.4747L6.56256 3.5847C6.51993 3.21877 6.34423 2.88129 6.06891 2.6365C5.79359 2.39172 5.43786 2.25672 5.06946 2.2572H3.77256C2.92476 2.2572 2.22006 2.9628 2.27226 3.8097C2.67006 10.215 7.79196 15.3297 14.1901 15.7275C15.037 15.7797 15.7426 15.075 15.7426 14.2272V12.9303C15.7444 12.5635 15.6106 12.209 15.3669 11.9349C15.1232 11.6607 14.7867 11.4864 14.4223 11.4453Z" fill="url(#paint0_linear_69_822)"/>
<defs>
<linearGradient id="paint0_linear_69_822" x1="9.00605" y1="2.2572" x2="9.00605" y2="15.7302" gradientUnits="userSpaceOnUse">
<stop stop-color="#FB0505"/>
<stop offset="1" stop-color="#CD0101"/>
</linearGradient>
</defs>
</svg>
