<svg width="32" height="32" viewBox="0 0 32 32" fill="none" xmlns="http://www.w3.org/2000/svg">
<path d="M10.052 30C22.128 30 28.734 19.994 28.734 11.332C28.734 11.052 28.734 10.768 28.722 10.488C30.0081 9.55698 31.1181 8.40432 32 7.08401C30.7986 7.61371 29.5255 7.96282 28.222 8.12001C29.5951 7.29929 30.6234 6.00795 31.116 4.48601C29.826 5.25026 28.414 5.78676 26.942 6.07201C25.9524 5.01806 24.6428 4.31985 23.2162 4.08553C21.7895 3.85121 20.3254 4.09386 19.0507 4.77589C17.7759 5.45792 16.7616 6.54127 16.1649 7.85813C15.5682 9.175 15.4224 10.6519 15.75 12.06C13.1395 11.9291 10.5856 11.2509 8.25409 10.0695C5.92254 8.88805 3.86537 7.2297 2.216 5.20201C1.37868 6.64818 1.12315 8.35881 1.50129 9.98655C1.87944 11.6143 2.86291 13.0371 4.252 13.966C3.21108 13.9306 2.19304 13.6511 1.28 13.15V13.24C1.28179 14.755 1.80661 16.2229 2.76575 17.3955C3.72488 18.5682 5.0595 19.3738 6.544 19.676C5.98053 19.8312 5.39846 19.9086 4.814 19.906C4.40197 19.9073 3.99076 19.8691 3.586 19.792C4.00557 21.0961 4.82255 22.2363 5.92249 23.053C7.02244 23.8696 8.35027 24.3217 9.72 24.346C7.39311 26.1736 4.5188 27.1648 1.56 27.16C1.03864 27.1622 0.517646 27.1322 0 27.07C3.00303 28.9845 6.4906 30.0011 10.052 30Z" fill="url(#paint0_linear_69_833)"/>
<defs>
<linearGradient id="paint0_linear_69_833" x1="16" y1="3.99863" x2="16" y2="30" gradientUnits="userSpaceOnUse">
<stop stop-color="#FB0505"/>
<stop offset="1" stop-color="#CD0101"/>
</linearGradient>
</defs>
</svg>
