<svg width="32" height="32" viewBox="0 0 32 32" fill="none" xmlns="http://www.w3.org/2000/svg">
<g clip-path="url(#clip0_69_835)">
<path d="M16.102 3.99799H16.28C17.924 4.00399 26.254 4.06399 28.5 4.66799C29.179 4.85232 29.7977 5.21163 30.2943 5.71C30.7909 6.20837 31.1481 6.82835 31.33 7.50799C31.532 8.26799 31.674 9.27399 31.77 10.312L31.79 10.52L31.834 11.04L31.85 11.248C31.98 13.076 31.996 14.788 31.998 15.162V15.312C31.996 15.7 31.978 17.528 31.834 19.432L31.818 19.642L31.8 19.85C31.7 20.994 31.552 22.13 31.33 22.966C31.1486 23.6459 30.7917 24.2662 30.295 24.7646C29.7983 25.2631 29.1793 25.6222 28.5 25.806C26.18 26.43 17.362 26.474 16.14 26.476H15.856C15.238 26.476 12.682 26.464 10.002 26.372L9.662 26.36L9.488 26.352L9.146 26.338L8.804 26.324C6.584 26.226 4.47 26.068 3.496 25.804C2.81698 25.6204 2.19813 25.2616 1.70145 24.7635C1.20477 24.2654 0.847694 23.6455 0.666 22.966C0.444 22.132 0.296 20.994 0.196 19.85L0.18 19.64L0.164 19.432C0.0652952 18.0768 0.0105997 16.7187 0 15.36L0 15.114C0.004 14.684 0.02 13.198 0.128 11.558L0.142 11.352L0.148 11.248L0.164 11.04L0.208 10.52L0.228 10.312C0.324 9.27399 0.466 8.26599 0.668 7.50799C0.849387 6.82808 1.20632 6.20781 1.70303 5.70935C2.19973 5.21089 2.81874 4.85177 3.498 4.66799C4.472 4.40799 6.586 4.24799 8.806 4.14799L9.146 4.13399L9.49 4.12199L9.662 4.11599L10.004 4.10199C11.9074 4.04074 13.8116 4.00673 15.716 3.99999H16.102V3.99799ZM12.8 10.418V20.054L21.114 15.238L12.8 10.418Z" fill="url(#paint0_linear_69_835)"/>
</g>
<defs>
<linearGradient id="paint0_linear_69_835" x1="15.999" y1="3.99799" x2="15.999" y2="26.476" gradientUnits="userSpaceOnUse">
<stop stop-color="#FB0505"/>
<stop offset="1" stop-color="#CD0101"/>
</linearGradient>
<clipPath id="clip0_69_835">
<rect width="32" height="32" fill="white"/>
</clipPath>
</defs>
</svg>
