<svg width="24" height="27" viewBox="0 0 24 27" fill="none" xmlns="http://www.w3.org/2000/svg">
<path d="M9.69576 0.616699H11.9102L12.0898 2.28724L12.5087 2.52589C12.6284 2.59407 12.7382 2.67362 12.8379 2.76454L14.2145 2.11677L15.3217 4.2987L14.1546 5.28739V6.27608L15.3217 7.29886L14.2145 9.48078L12.8379 8.83302C12.7182 8.92394 12.5935 9.01485 12.4638 9.10577C12.3342 9.19668 12.2095 9.27623 12.0898 9.34441L11.9102 10.9809H9.69576L9.54613 9.34441C9.42643 9.2535 9.30673 9.16827 9.18703 9.08872C9.06733 9.00917 8.94763 8.92394 8.82793 8.83302L8.76808 8.86712V18.379L8.10973 17.0493L7.45137 17.3903V9.20804L6.31421 7.29886L7.45137 6.31017V5.32148L6.28429 4.2987L7.39152 2.11677L8.76808 2.76454C8.88778 2.67362 9.01247 2.58271 9.14215 2.49179C9.27182 2.40088 9.39651 2.32133 9.51621 2.25315L9.69576 0.616699ZM10.803 8.11708C11.3616 8.11708 11.8404 7.88979 12.2394 7.43523C12.6384 6.98066 12.8379 6.43518 12.8379 5.79878C12.8379 5.16238 12.6384 4.6169 12.2394 4.16233C11.8404 3.70776 11.3616 3.48048 10.803 3.48048C10.2444 3.48048 9.76559 3.70776 9.36658 4.16233C8.96758 4.6169 8.76808 5.16238 8.76808 5.79878C8.76808 6.43518 8.96758 6.98066 9.36658 7.43523C9.76559 7.88979 10.2444 8.11708 10.803 8.11708ZM18.3741 26.5271L18.1945 24.8566L17.7756 24.6179C17.6559 24.5497 17.5461 24.4702 17.4464 24.3793L16.0698 25.027L14.9626 22.8451L16.1297 21.8564V20.8677L14.9626 19.879L16.0698 17.663L17.4464 18.3108C17.5262 18.2199 17.606 18.1346 17.6858 18.0551C17.7656 17.9755 17.8753 17.9017 18.015 17.8335L18.1047 17.4244L11.0723 11.4582H12.2693L12.3591 10.674L18.8229 16.1629H20.5885L20.7681 17.8335L21.187 18.0721C21.3067 18.1403 21.4165 18.2199 21.5162 18.3108L22.8928 17.663L24 19.8449L22.8329 20.8336V21.8223L24 22.8451L22.8928 25.027L21.5162 24.3793C21.3965 24.4702 21.2718 24.5611 21.1421 24.652C21.0125 24.7429 20.8878 24.8225 20.7681 24.8907L20.5885 26.5271H18.3741ZM19.4813 23.6633C20.0399 23.6633 20.5187 23.436 20.9177 22.9815C21.3167 22.5269 21.5162 21.9814 21.5162 21.345C21.5162 20.7086 21.3167 20.1631 20.9177 19.7086C20.5187 19.254 20.0399 19.0267 19.4813 19.0267C18.9227 19.0267 18.4439 19.254 18.0449 19.7086C17.6459 20.1631 17.4464 20.7086 17.4464 21.345C17.4464 21.9814 17.6459 22.5269 18.0449 22.9815C18.4439 23.436 18.9227 23.6633 19.4813 23.6633ZM3.41147 26.5271L3.23192 24.8566L2.81297 24.6179C2.69327 24.5497 2.58354 24.4702 2.48379 24.3793L1.10723 25.027L0 22.8451L1.16708 21.8564V20.8677L0 19.8449L1.10723 17.663L2.48379 18.3108C2.60349 18.2199 2.72818 18.1289 2.85786 18.038C2.98753 17.9471 3.11222 17.8676 3.23192 17.7994L3.41147 16.1629H5.62594L5.80549 17.8335L6.22444 18.0721C6.34414 18.1403 6.45387 18.2199 6.55362 18.3108L7.93018 17.663L9.03741 19.8449L7.87032 20.8336C7.91023 21.0155 7.9202 21.2257 7.90025 21.4643C7.8803 21.703 7.8404 21.8791 7.78055 21.9928C7.82045 22.0382 7.85037 22.061 7.87032 22.061C7.89028 22.061 7.9202 22.0837 7.9601 22.1291L15.5611 17.663L14.4239 20.0154L8.76808 23.3224L7.93018 25.027L6.55362 24.3793C6.43392 24.4702 6.30923 24.5611 6.17955 24.652C6.04988 24.7429 5.92519 24.8225 5.80549 24.8907L5.62594 26.5271H3.41147ZM4.5187 23.6633C5.07731 23.6633 5.55611 23.436 5.95511 22.9815C6.35411 22.5269 6.55362 21.9814 6.55362 21.345C6.55362 20.7086 6.35411 20.1631 5.95511 19.7086C5.55611 19.254 5.07731 19.0267 4.5187 19.0267C3.9601 19.0267 3.4813 19.254 3.08229 19.7086C2.68329 20.1631 2.48379 20.7086 2.48379 21.345C2.48379 21.9814 2.68329 22.5269 3.08229 22.9815C3.4813 23.436 3.9601 23.6633 4.5187 23.6633Z" fill="url(#paint0_linear_23_40)"/>
<defs>
<linearGradient id="paint0_linear_23_40" x1="12" y1="0.616699" x2="12" y2="26.5271" gradientUnits="userSpaceOnUse">
<stop stop-color="#FB0505"/>
<stop offset="1" stop-color="#CD0101"/>
</linearGradient>
</defs>
</svg>
