<svg width="24" height="27" viewBox="0 0 24 27" fill="none" xmlns="http://www.w3.org/2000/svg">
<path d="M12 26.5271C10.36 26.5271 8.81 26.187 7.35 25.5069C5.89 24.8267 4.615 23.8983 3.525 22.7215C2.435 21.5447 1.575 20.1683 0.945 18.592C0.315 17.0158 0 15.3424 0 13.5719C0 11.7366 0.32 10.0308 0.96 8.4546C1.6 6.87838 2.475 5.50729 3.585 4.34132C4.695 3.17535 5.995 2.26309 7.485 1.60453C8.975 0.945977 10.57 0.616699 12.27 0.616699C13.85 0.616699 15.35 0.902793 16.77 1.47498C18.19 2.04717 19.435 2.84068 20.505 3.8555C21.575 4.87032 22.425 6.07408 23.055 7.46676C23.685 8.85945 24 10.3871 24 12.0497C24 14.3816 23.37 16.2223 22.11 17.5718C20.85 18.9213 19.18 19.5961 17.1 19.5961H14.85C14.49 19.5961 14.18 19.7472 13.92 20.0495C13.66 20.3518 13.53 20.6865 13.53 21.0535C13.53 21.6365 13.675 22.1331 13.965 22.5434C14.255 22.9536 14.4 23.4286 14.4 23.9684C14.4 24.7889 14.19 25.4205 13.77 25.8631C13.35 26.3058 12.76 26.5271 12 26.5271ZM5.01 14.414C5.41 14.414 5.76 14.252 6.06 13.9282C6.36 13.6043 6.51 13.2264 6.51 12.7946C6.51 12.3627 6.36 11.9849 6.06 11.661C5.76 11.3371 5.41 11.1752 5.01 11.1752C4.61 11.1752 4.26 11.3371 3.96 11.661C3.66 11.9849 3.51 12.3627 3.51 12.7946C3.51 13.2264 3.66 13.6043 3.96 13.9282C4.26 14.252 4.61 14.414 5.01 14.414ZM8.79 8.90803C9.19 8.90803 9.54 8.74609 9.84 8.42221C10.14 8.09833 10.29 7.72047 10.29 7.28863C10.29 6.85679 10.14 6.47893 9.84 6.15505C9.54 5.83117 9.19 5.66923 8.79 5.66923C8.39 5.66923 8.04 5.83117 7.74 6.15505C7.44 6.47893 7.29 6.85679 7.29 7.28863C7.29 7.72047 7.44 8.09833 7.74 8.42221C8.04 8.74609 8.39 8.90803 8.79 8.90803ZM15.21 8.90803C15.61 8.90803 15.96 8.74609 16.26 8.42221C16.56 8.09833 16.71 7.72047 16.71 7.28863C16.71 6.85679 16.56 6.47893 16.26 6.15505C15.96 5.83117 15.61 5.66923 15.21 5.66923C14.81 5.66923 14.46 5.83117 14.16 6.15505C13.86 6.47893 13.71 6.85679 13.71 7.28863C13.71 7.72047 13.86 8.09833 14.16 8.42221C14.46 8.74609 14.81 8.90803 15.21 8.90803ZM19.14 14.414C19.54 14.414 19.89 14.252 20.19 13.9282C20.49 13.6043 20.64 13.2264 20.64 12.7946C20.64 12.3627 20.49 11.9849 20.19 11.661C19.89 11.3371 19.54 11.1752 19.14 11.1752C18.74 11.1752 18.39 11.3371 18.09 11.661C17.79 11.9849 17.64 12.3627 17.64 12.7946C17.64 13.2264 17.79 13.6043 18.09 13.9282C18.39 14.252 18.74 14.414 19.14 14.414ZM12 24.5838C12.22 24.5838 12.375 24.5352 12.465 24.4381C12.555 24.3409 12.6 24.1844 12.6 23.9684C12.6 23.6662 12.455 23.3855 12.165 23.1264C11.875 22.8673 11.73 22.2951 11.73 21.4098C11.73 20.4166 12.03 19.5421 12.63 18.7864C13.23 18.0306 13.99 17.6528 14.91 17.6528H17.1C18.62 17.6528 19.85 17.1724 20.79 16.2115C21.73 15.2507 22.2 13.8634 22.2 12.0497C22.2 9.19952 21.2 6.90537 19.2 5.16721C17.2 3.42906 14.89 2.55998 12.27 2.55998C9.35 2.55998 6.875 3.62339 4.845 5.7502C2.815 7.87701 1.8 10.4842 1.8 13.5719C1.8 16.6164 2.795 19.2128 4.785 21.3612C6.775 23.5096 9.18 24.5838 12 24.5838Z" fill="url(#paint0_linear_23_38)"/>
<defs>
<linearGradient id="paint0_linear_23_38" x1="12" y1="0.616699" x2="12" y2="26.5271" gradientUnits="userSpaceOnUse">
<stop stop-color="#FB0505"/>
<stop offset="1" stop-color="#CD0101"/>
</linearGradient>
</defs>
</svg>
