<svg width="16" height="16" viewBox="0 0 16 16" fill="none" xmlns="http://www.w3.org/2000/svg">
<path d="M13.8539 3.64641C13.9005 3.69285 13.9374 3.74803 13.9626 3.80877C13.9878 3.86952 14.0008 3.93464 14.0008 4.00041C14.0008 4.06617 13.9878 4.13129 13.9626 4.19204C13.9374 4.25278 13.9005 4.30796 13.8539 4.35441L6.8539 11.3544C6.80745 11.401 6.75228 11.4379 6.69153 11.4631C6.63079 11.4883 6.56567 11.5013 6.4999 11.5013C6.43413 11.5013 6.36901 11.4883 6.30827 11.4631C6.24752 11.4379 6.19234 11.401 6.1459 11.3544L2.6459 7.85441C2.55201 7.76052 2.49927 7.63318 2.49927 7.50041C2.49927 7.36763 2.55201 7.24029 2.6459 7.14641C2.73979 7.05252 2.86712 6.99977 2.9999 6.99977C3.13267 6.99977 3.26001 7.05252 3.3539 7.14641L6.4999 10.2934L13.1459 3.64641C13.1923 3.59984 13.2475 3.5629 13.3083 3.53769C13.369 3.51249 13.4341 3.49951 13.4999 3.49951C13.5657 3.49951 13.6308 3.51249 13.6915 3.53769C13.7523 3.5629 13.8075 3.59984 13.8539 3.64641Z" fill="url(#paint0_linear_32_177)"/>
<defs>
<linearGradient id="paint0_linear_32_177" x1="8.25003" y1="3.49951" x2="8.25003" y2="11.5013" gradientUnits="userSpaceOnUse">
<stop stop-color="#FB0505"/>
<stop offset="1" stop-color="#CD0101"/>
</linearGradient>
</defs>
</svg>
