<svg width="135" height="32" viewBox="0 0 135 32" fill="none" xmlns="http://www.w3.org/2000/svg">
<g clip-path="url(#clip0_14_361)">
<path d="M19.1147 13.7973C19.52 13.7973 19.8294 13.8933 20.0427 14.0853C20.256 14.2773 20.352 14.5547 20.3307 14.9173C20.3094 15.28 20.1494 15.568 19.8507 15.7813C19.552 15.9733 19.1787 16.0693 18.7307 16.0693H16.3307L15.4347 21.2533H17.8347C18.24 21.2533 18.5387 21.36 18.7307 21.5733C18.9227 21.7653 19.0187 22.0107 19.0187 22.3093C19.0187 22.608 18.88 22.8853 18.6027 23.1413C18.3467 23.3973 17.952 23.5253 17.4187 23.5253H14.9227L13.7707 29.9893C13.6854 30.3947 13.5147 30.7253 13.2587 30.9813C13.0027 31.216 12.672 31.3333 12.2667 31.3333C11.8827 31.3333 11.5947 31.2053 11.4027 30.9493C11.2107 30.6933 11.1574 30.352 11.2427 29.9253L12.2987 23.5253H6.50672L5.38672 29.9893C5.32272 30.352 5.15205 30.672 4.87472 30.9493C4.59739 31.2053 4.26672 31.3333 3.88272 31.3333C3.49872 31.3333 3.20005 31.216 2.98672 30.9813C2.79472 30.7467 2.74139 30.3947 2.82672 29.9253L3.94672 23.5253H1.38672C1.02405 23.5253 0.736054 23.4293 0.522721 23.2373C0.309387 23.0453 0.213387 22.8 0.234721 22.5013C0.256054 22.096 0.405387 21.7867 0.682721 21.5733C0.981387 21.36 1.34405 21.2533 1.77072 21.2533H4.45872L5.32272 16.0693H2.76272C2.35739 16.0693 2.04805 15.984 1.83472 15.8133C1.62139 15.6213 1.51472 15.3547 1.51472 15.0133C1.51472 14.6293 1.65339 14.3307 1.93072 14.1173C2.20805 13.904 2.59205 13.7973 3.08272 13.7973H5.83472L6.95471 7.58933C7.01871 7.184 7.17871 6.85333 7.43471 6.59733C7.71204 6.34133 8.05337 6.21333 8.45871 6.21333C8.84271 6.21333 9.13071 6.34133 9.32271 6.59733C9.53604 6.85333 9.60004 7.184 9.51471 7.58933L8.39471 13.7973H14.2507L15.3707 7.58933C15.4134 7.184 15.5734 6.85333 15.8507 6.59733C16.128 6.34133 16.4694 6.21333 16.8747 6.21333C17.3014 6.21333 17.5894 6.352 17.7387 6.62933C17.9094 6.88533 17.9627 7.20533 17.8987 7.58933L16.8107 13.7973H19.1147ZM12.8427 21.2533L13.7387 16.0693H7.88271L7.01871 21.2533H12.8427Z" fill="#F7F7F7"/>
<path d="M32.6084 31.4933C30.8804 31.4933 29.3444 31.1093 28.0004 30.3413C26.6777 29.5733 25.6324 28.5173 24.8644 27.1733C24.0964 25.8293 23.7124 24.304 23.7124 22.5973C23.7124 20.8693 24.0964 19.3333 24.8644 17.9893C25.6324 16.6453 26.6777 15.5893 28.0004 14.8213C29.3444 14.0533 30.8804 13.6693 32.6084 13.6693C34.3151 13.6693 35.8297 14.0533 37.1524 14.8213C38.4751 15.5893 39.5204 16.6453 40.2884 17.9893C41.0564 19.3333 41.4511 20.8693 41.4724 22.5973C41.4724 24.304 41.0884 25.8293 40.3204 27.1733C39.5524 28.5173 38.4964 29.5733 37.1524 30.3413C35.8297 31.1093 34.3151 31.4933 32.6084 31.4933ZM32.6084 29.0613C33.8031 29.0613 34.8697 28.784 35.8084 28.2293C36.7471 27.6533 37.4831 26.8853 38.0164 25.9253C38.5497 24.944 38.8164 23.8347 38.8164 22.5973C38.8164 21.36 38.5497 20.2507 38.0164 19.2693C37.4831 18.288 36.7471 17.52 35.8084 16.9653C34.8697 16.3893 33.8031 16.1013 32.6084 16.1013C31.4137 16.1013 30.3364 16.3893 29.3764 16.9653C28.4377 17.52 27.6911 18.288 27.1364 19.2693C26.6031 20.2507 26.3364 21.36 26.3364 22.5973C26.3364 23.8347 26.6031 24.944 27.1364 25.9253C27.6911 26.8853 28.4377 27.6533 29.3764 28.2293C30.3364 28.784 31.4137 29.0613 32.6084 29.0613Z" fill="#F7F7F7"/>
<path d="M50.1695 31.3333C49.2735 31.3333 48.4842 31.0987 47.8015 30.6293C47.1188 30.1387 46.5855 29.4667 46.2015 28.6133C45.8175 27.76 45.6255 26.7787 45.6255 25.6693V7.68534C45.6255 7.28001 45.7428 6.96001 45.9775 6.72534C46.2335 6.46934 46.5642 6.34134 46.9695 6.34134C47.3535 6.34134 47.6628 6.46934 47.8975 6.72534C48.1535 6.96001 48.2815 7.28001 48.2815 7.68534V25.6693C48.2815 26.544 48.4522 27.2693 48.7935 27.8453C49.1562 28.4 49.6148 28.6773 50.1695 28.6773H50.9695C51.3108 28.6773 51.5882 28.8053 51.8015 29.0613C52.0148 29.296 52.1215 29.6053 52.1215 29.9893C52.1215 30.3947 51.9615 30.7253 51.6415 30.9813C51.3428 31.216 50.9482 31.3333 50.4575 31.3333H50.1695Z" fill="#F7F7F7"/>
<path d="M57.3082 31.3333C56.9028 31.3333 56.5722 31.216 56.3162 30.9813C56.0602 30.7253 55.9322 30.384 55.9322 29.9573V15.2053C55.9322 14.7787 56.0602 14.448 56.3162 14.2133C56.5722 13.9573 56.9028 13.8293 57.3082 13.8293C57.7135 13.8293 58.0335 13.9573 58.2682 14.2133C58.5242 14.448 58.6522 14.7787 58.6522 15.2053V29.9573C58.6522 30.384 58.5242 30.7253 58.2682 30.9813C58.0335 31.216 57.7135 31.3333 57.3082 31.3333ZM57.2762 10.6613C56.7642 10.6613 56.3268 10.48 55.9642 10.1173C55.6015 9.73334 55.4202 9.28534 55.4202 8.77334C55.4202 8.24001 55.6015 7.80267 55.9642 7.46134C56.3482 7.12001 56.7855 6.94934 57.2762 6.94934C57.7668 6.94934 58.1935 7.12001 58.5562 7.46134C58.9402 7.80267 59.1322 8.24001 59.1322 8.77334C59.1322 9.28534 58.9508 9.73334 58.5882 10.1173C58.2255 10.48 57.7882 10.6613 57.2762 10.6613Z" fill="#F7F7F7"/>
<path d="M76.5792 31.4933C74.4992 31.4933 72.6326 31.0133 70.9792 30.0533C69.3259 29.0667 68.0192 27.7333 67.0592 26.0533C66.0991 24.3733 65.6058 22.48 65.5791 20.3733V2.13334C65.5791 1.52001 65.7658 1.02667 66.1391 0.653338C66.5391 0.280005 67.0326 0.093338 67.6192 0.093338C68.2326 0.093338 68.7259 0.280005 69.0992 0.653338C69.4726 1.02667 69.6592 1.52001 69.6592 2.13334V12.9333C70.5926 11.8133 71.7126 10.9333 73.0192 10.2933C74.3526 9.62667 75.8059 9.29334 77.3792 9.29334C79.3259 9.29334 81.0726 9.78667 82.6192 10.7733C84.1659 11.7333 85.3792 13.0533 86.2592 14.7333C87.1659 16.3867 87.6192 18.2667 87.6192 20.3733C87.6192 22.48 87.1259 24.3733 86.1392 26.0533C85.1792 27.7333 83.8726 29.0667 82.2192 30.0533C80.5659 31.0133 78.6859 31.4933 76.5792 31.4933ZM76.5792 27.8933C77.9392 27.8933 79.1526 27.5733 80.2192 26.9333C81.2859 26.2667 82.1259 25.36 82.7392 24.2133C83.3792 23.0667 83.6992 21.7867 83.6992 20.3733C83.6992 18.9333 83.3792 17.6533 82.7392 16.5333C82.1259 15.4133 81.2859 14.5333 80.2192 13.8933C79.1526 13.2267 77.9392 12.8933 76.5792 12.8933C75.2459 12.8933 74.0326 13.2267 72.9392 13.8933C71.8726 14.5333 71.0326 15.4133 70.4192 16.5333C69.8059 17.6533 69.4992 18.9333 69.4992 20.3733C69.4992 21.7867 69.8059 23.0667 70.4192 24.2133C71.0326 25.36 71.8726 26.2667 72.9392 26.9333C74.0326 27.5733 75.2459 27.8933 76.5792 27.8933Z" fill="url(#paint0_linear_14_361)"/>
<path d="M94.8079 31.3333C94.4026 31.3333 94.0719 31.216 93.8159 30.9813C93.5599 30.7253 93.4319 30.384 93.4319 29.9573V15.2053C93.4319 14.7787 93.5599 14.448 93.8159 14.2133C94.0719 13.9573 94.4026 13.8293 94.8079 13.8293C95.2133 13.8293 95.5332 13.9573 95.7679 14.2133C96.0239 14.448 96.1519 14.7787 96.1519 15.2053V29.9573C96.1519 30.384 96.0239 30.7253 95.7679 30.9813C95.5332 31.216 95.2133 31.3333 94.8079 31.3333ZM94.7759 10.6613C94.2639 10.6613 93.8266 10.48 93.4639 10.1173C93.1013 9.73334 92.9199 9.28534 92.9199 8.77334C92.9199 8.24001 93.1013 7.80267 93.4639 7.46134C93.8479 7.12001 94.2853 6.94934 94.7759 6.94934C95.2666 6.94934 95.6933 7.12001 96.0559 7.46134C96.4399 7.80267 96.6319 8.24001 96.6319 8.77334C96.6319 9.28534 96.4506 9.73334 96.0879 10.1173C95.7253 10.48 95.2879 10.6613 94.7759 10.6613Z" fill="#F7F7F7"/>
<path d="M105 25V21.6667L113.655 13.9573C113.933 13.7013 114.221 13.584 114.519 13.6053C114.839 13.6267 115.127 13.776 115.383 14.0533C115.639 14.3307 115.757 14.6293 115.735 14.9493C115.714 15.248 115.565 15.5253 115.287 15.7813L105 25ZM103.671 31.3333C103.287 31.3333 102.967 31.216 102.711 30.9813C102.477 30.7253 102.359 30.4053 102.359 30.0213V7.65334C102.359 7.26934 102.477 6.96001 102.711 6.72534C102.967 6.46934 103.287 6.34134 103.671 6.34134C104.077 6.34134 104.397 6.46934 104.631 6.72534C104.887 6.96001 105.015 7.26934 105.015 7.65334V30.0213C105.015 30.4053 104.887 30.7253 104.631 30.9813C104.397 31.216 104.077 31.3333 103.671 31.3333ZM115.383 31.1733C115.085 31.4293 114.765 31.536 114.423 31.4933C114.103 31.472 113.826 31.312 113.591 31.0133L107.232 23L109 21.4417L115.575 29.4133C115.81 29.6907 115.917 29.9893 115.895 30.3093C115.874 30.6293 115.703 30.9173 115.383 31.1733Z" fill="#F7F7F7"/>
<path d="M127.079 31.4933C125.329 31.4933 123.783 31.12 122.439 30.3733C121.095 29.6053 120.039 28.5493 119.271 27.2053C118.503 25.8613 118.119 24.3253 118.119 22.5973C118.119 20.848 118.481 19.312 119.207 17.9893C119.932 16.6453 120.924 15.5893 122.183 14.8213C123.463 14.0533 124.935 13.6693 126.599 13.6693C128.22 13.6693 129.628 14.0427 130.823 14.7893C132.039 15.5147 132.967 16.528 133.607 17.8293C134.268 19.1307 134.599 20.6133 134.599 22.2773C134.599 22.64 134.481 22.9387 134.247 23.1733C134.012 23.3867 133.713 23.4933 133.351 23.4933H120.664L120.613 22.5625L120.707 21.2853H133.511H132C132.021 20.112 131.943 20.016 131.495 19.0773C131.047 18.1387 130.407 17.4027 129.575 16.8693C128.743 16.336 127.751 16.0693 126.599 16.0693C125.383 16.0693 124.316 16.3467 123.399 16.9013C122.503 17.456 121.809 18.2347 121.319 19.2373C120.849 20.2187 120.613 21.3387 120.613 22.5973C120.613 23.856 120.892 24.976 121.447 25.9573C122.001 26.9387 122.759 27.7067 123.719 28.2613C124.7 28.816 125.82 29.0933 127.079 29.0933C127.804 29.0933 128.54 28.9653 129.287 28.7093C130.055 28.4533 130.663 28.1333 131.111 27.7493C131.367 27.5573 131.655 27.4613 131.975 27.4613C132.316 27.44 132.593 27.5253 132.807 27.7173C133.127 27.9947 133.287 28.2933 133.287 28.6133C133.308 28.9333 133.169 29.2107 132.871 29.4453C132.167 30.0427 131.271 30.5333 130.183 30.9173C129.095 31.3013 128.06 31.4933 127.079 31.4933Z" fill="#F7F7F7"/>
</g>
<defs>
<linearGradient id="paint0_linear_14_361" x1="67.4152" y1="0.093338" x2="67.4152" y2="31.5025" gradientUnits="userSpaceOnUse">
<stop stop-color="#F95252"/>
<stop offset="1" stop-color="#B30202"/>
</linearGradient>
<clipPath id="clip0_14_361">
<rect width="134.667" height="32" fill="white"/>
</clipPath>
</defs>
</svg>
