<svg width="24" height="24" viewBox="0 0 24 24" fill="none" xmlns="http://www.w3.org/2000/svg">
<path d="M16.7 10.775C16.55 10.625 16.475 10.4458 16.475 10.2375C16.475 10.0292 16.55 9.85 16.7 9.7L19.025 7.375C19.1583 7.24167 19.3333 7.17083 19.55 7.1625C19.7667 7.15417 19.95 7.225 20.1 7.375C20.25 7.525 20.325 7.70417 20.325 7.9125C20.325 8.12083 20.25 8.3 20.1 8.45L17.75 10.8C17.6167 10.9333 17.4458 11 17.2375 11C17.0292 11 16.85 10.925 16.7 10.775ZM2.75 20C2.53333 20 2.35417 19.9292 2.2125 19.7875C2.07083 19.6458 2 19.4667 2 19.25C2 19.0333 2.07083 18.8542 2.2125 18.7125C2.35417 18.5708 2.53333 18.5 2.75 18.5H21.25C21.4667 18.5 21.6458 18.5708 21.7875 18.7125C21.9292 18.8542 22 19.0333 22 19.25C22 19.4667 21.9292 19.6458 21.7875 19.7875C21.6458 19.9292 21.4667 20 21.25 20H2.75ZM12 9.25C11.7833 9.25 11.6042 9.17917 11.4625 9.0375C11.3208 8.89583 11.25 8.71667 11.25 8.5V4.75C11.25 4.53333 11.3208 4.35417 11.4625 4.2125C11.6042 4.07083 11.7833 4 12 4C12.2167 4 12.3958 4.07083 12.5375 4.2125C12.6792 4.35417 12.75 4.53333 12.75 4.75V8.5C12.75 8.71667 12.6792 8.89583 12.5375 9.0375C12.3958 9.17917 12.2167 9.25 12 9.25ZM6.25 10.775L3.9 8.45C3.76667 8.31667 3.7 8.14583 3.7 7.9375C3.7 7.72917 3.775 7.55 3.925 7.4C4.075 7.25 4.25417 7.175 4.4625 7.175C4.67083 7.175 4.85 7.25 5 7.4L7.325 9.725C7.45833 9.85833 7.52917 10.0333 7.5375 10.25C7.54583 10.4667 7.475 10.65 7.325 10.8C7.175 10.95 6.99167 11.025 6.775 11.025C6.55833 11.025 6.38333 10.9417 6.25 10.775ZM6.75 17C6.75 15.5167 7.25417 14.2708 8.2625 13.2625C9.27083 12.2542 10.5167 11.75 12 11.75C13.4833 11.75 14.7292 12.2542 15.7375 13.2625C16.7458 14.2708 17.25 15.5167 17.25 17H6.75Z" fill="url(#paint0_linear_45_211)"/>
<defs>
<linearGradient id="paint0_linear_45_211" x1="12" y1="4" x2="12" y2="20" gradientUnits="userSpaceOnUse">
<stop stop-color="#FB0505"/>
<stop offset="1" stop-color="#CD0101"/>
</linearGradient>
</defs>
</svg>
